<svg xmlns="http://www.w3.org/2000/svg" width="1360" height="460" font-family="sans-serif"><rect width="100%" height="100%" fill="#131722"/><text x="40" y="22" fill="#d1d4dc" font-size="13">#6 XRPUSDT LONG 2026-03-06 14:09 UTC (wide) · 1h</text><rect x="216.1" y="349.7" width="363.9" height="34.6" fill="rgba(38,166,154,0.22)"/><rect x="216.1" y="345.9" width="363.9" height="3.8" fill="rgba(84,160,255,0.22)"/><line x1="40.0" x2="40.0" y1="255.6" y2="289.7" stroke="#ef5350" stroke-width="1"/><rect x="38.0" y="266.5" width="4.1" height="17.6" fill="#ef5350"/><line x1="45.9" x2="45.9" y1="257.5" y2="292.4" stroke="#26a69a" stroke-width="1"/><rect x="43.8" y="282.5" width="4.1" height="1.6" fill="#26a69a"/><line x1="51.7" x2="51.7" y1="271.6" y2="310.1" stroke="#ef5350" stroke-width="1"/><rect x="49.7" y="282.5" width="4.1" height="16.7" fill="#ef5350"/><line x1="57.6" x2="57.6" y1="290.4" y2="333.5" stroke="#ef5350" stroke-width="1"/><rect x="55.6" y="299.3" width="4.1" height="23.2" fill="#ef5350"/><line x1="63.5" x2="63.5" y1="308.8" y2="328.1" stroke="#ef5350" stroke-width="1"/><rect x="61.4" y="322.5" width="4.1" height="4.0" fill="#ef5350"/><line x1="69.3" x2="69.3" y1="305.9" y2="345.9" stroke="#26a69a" stroke-width="1"/><rect x="67.3" y="314.8" width="4.1" height="11.7" fill="#26a69a"/><line x1="75.2" x2="75.2" y1="314.6" y2="353.4" stroke="#ef5350" stroke-width="1"/><rect x="73.2" y="314.8" width="4.1" height="36.2" fill="#ef5350"/><line x1="81.1" x2="81.1" y1="336.8" y2="360.2" stroke="#26a69a" stroke-width="1"/><rect x="79.1" y="344.8" width="4.1" height="6.2" fill="#26a69a"/><line x1="87.0" x2="87.0" y1="329.4" y2="363.7" stroke="#ef5350" stroke-width="1"/><rect x="84.9" y="344.8" width="4.1" height="12.3" fill="#ef5350"/><line x1="92.8" x2="92.8" y1="354.8" y2="396.5" stroke="#ef5350" stroke-width="1"/><rect x="90.8" y="357.1" width="4.1" height="38.4" fill="#ef5350"/><line x1="98.7" x2="98.7" y1="382.6" y2="404.2" stroke="#ef5350" stroke-width="1"/><rect x="96.7" y="395.5" width="4.1" height="4.9" fill="#ef5350"/><line x1="104.6" x2="104.6" y1="372.2" y2="403.4" stroke="#26a69a" stroke-width="1"/><rect x="102.5" y="387.6" width="4.1" height="12.7" fill="#26a69a"/><line x1="110.4" x2="110.4" y1="325.3" y2="391.5" stroke="#26a69a" stroke-width="1"/><rect x="108.4" y="356.5" width="4.1" height="31.2" fill="#26a69a"/><line x1="116.3" x2="116.3" y1="354.7" y2="390.5" stroke="#ef5350" stroke-width="1"/><rect x="114.3" y="356.5" width="4.1" height="28.0" fill="#ef5350"/><line x1="122.2" x2="122.2" y1="368.3" y2="402.7" stroke="#26a69a" stroke-width="1"/><rect x="120.1" y="374.0" width="4.1" height="10.5" fill="#26a69a"/><line x1="128.0" x2="128.0" y1="348.1" y2="420.0" stroke="#ef5350" stroke-width="1"/><rect x="126.0" y="374.0" width="4.1" height="27.0" fill="#ef5350"/><line x1="133.9" x2="133.9" y1="280.1" y2="401.9" stroke="#26a69a" stroke-width="1"/><rect x="131.9" y="294.0" width="4.1" height="107.0" fill="#26a69a"/><line x1="139.8" x2="139.8" y1="294.0" y2="375.5" stroke="#ef5350" stroke-width="1"/><rect x="137.8" y="294.0" width="4.1" height="53.7" fill="#ef5350"/><line x1="145.7" x2="145.7" y1="317.4" y2="371.1" stroke="#26a69a" stroke-width="1"/><rect x="143.6" y="328.3" width="4.1" height="19.5" fill="#26a69a"/><line x1="151.5" x2="151.5" y1="312.1" y2="358.5" stroke="#ef5350" stroke-width="1"/><rect x="149.5" y="328.3" width="4.1" height="17.2" fill="#ef5350"/><line x1="157.4" x2="157.4" y1="336.4" y2="366.7" stroke="#ef5350" stroke-width="1"/><rect x="155.4" y="345.5" width="4.1" height="13.8" fill="#ef5350"/><line x1="163.3" x2="163.3" y1="347.1" y2="387.2" stroke="#ef5350" stroke-width="1"/><rect x="161.2" y="359.3" width="4.1" height="23.7" fill="#ef5350"/><line x1="169.1" x2="169.1" y1="343.1" y2="383.3" stroke="#26a69a" stroke-width="1"/><rect x="167.1" y="351.9" width="4.1" height="31.2" fill="#26a69a"/><line x1="175.0" x2="175.0" y1="328.4" y2="356.1" stroke="#26a69a" stroke-width="1"/><rect x="173.0" y="351.0" width="4.1" height="0.8" fill="#26a69a"/><line x1="180.9" x2="180.9" y1="346.2" y2="361.7" stroke="#26a69a" stroke-width="1"/><rect x="178.8" y="349.7" width="4.1" height="1.3" fill="#26a69a"/><line x1="186.7" x2="186.7" y1="341.7" y2="373.9" stroke="#26a69a" stroke-width="1"/><rect x="184.7" y="346.6" width="4.1" height="3.1" fill="#26a69a"/><line x1="192.6" x2="192.6" y1="328.2" y2="366.5" stroke="#ef5350" stroke-width="1"/><rect x="190.6" y="346.6" width="4.1" height="18.6" fill="#ef5350"/><line x1="198.5" x2="198.5" y1="346.9" y2="368.9" stroke="#ef5350" stroke-width="1"/><rect x="196.4" y="365.1" width="4.1" height="2.3" fill="#ef5350"/><line x1="204.3" x2="204.3" y1="365.9" y2="395.8" stroke="#ef5350" stroke-width="1"/><rect x="202.3" y="367.4" width="4.1" height="22.7" fill="#ef5350"/><line x1="210.2" x2="210.2" y1="360.6" y2="395.3" stroke="#26a69a" stroke-width="1"/><rect x="208.2" y="372.4" width="4.1" height="17.7" fill="#26a69a"/><line x1="216.1" x2="216.1" y1="349.7" y2="384.3" stroke="#ef5350" stroke-width="1"/><rect x="214.1" y="372.4" width="4.1" height="7.3" fill="#ef5350"/><line x1="222.0" x2="222.0" y1="345.0" y2="380.9" stroke="#26a69a" stroke-width="1"/><rect x="219.9" y="345.1" width="4.1" height="34.5" fill="#26a69a"/><line x1="227.8" x2="227.8" y1="302.4" y2="345.9" stroke="#26a69a" stroke-width="1"/><rect x="225.8" y="328.2" width="4.1" height="16.9" fill="#26a69a"/><line x1="233.7" x2="233.7" y1="186.2" y2="328.4" stroke="#26a69a" stroke-width="1"/><rect x="231.7" y="211.7" width="4.1" height="116.5" fill="#26a69a"/><line x1="239.6" x2="239.6" y1="171.4" y2="226.8" stroke="#ef5350" stroke-width="1"/><rect x="237.5" y="211.7" width="4.1" height="9.4" fill="#ef5350"/><line x1="245.4" x2="245.4" y1="208.1" y2="238.3" stroke="#ef5350" stroke-width="1"/><rect x="243.4" y="221.1" width="4.1" height="6.3" fill="#ef5350"/><line x1="251.3" x2="251.3" y1="225.8" y2="282.7" stroke="#ef5350" stroke-width="1"/><rect x="249.3" y="227.4" width="4.1" height="54.0" fill="#ef5350"/><line x1="257.2" x2="257.2" y1="234.3" y2="290.6" stroke="#26a69a" stroke-width="1"/><rect x="255.1" y="241.2" width="4.1" height="40.2" fill="#26a69a"/><line x1="263.0" x2="263.0" y1="210.1" y2="248.0" stroke="#26a69a" stroke-width="1"/><rect x="261.0" y="217.2" width="4.1" height="24.0" fill="#26a69a"/><line x1="268.9" x2="268.9" y1="113.8" y2="228.5" stroke="#26a69a" stroke-width="1"/><rect x="266.9" y="115.1" width="4.1" height="102.1" fill="#26a69a"/><line x1="274.8" x2="274.8" y1="40.0" y2="130.1" stroke="#26a69a" stroke-width="1"/><rect x="272.8" y="103.0" width="4.1" height="12.1" fill="#26a69a"/><line x1="280.7" x2="280.7" y1="84.6" y2="144.2" stroke="#ef5350" stroke-width="1"/><rect x="278.6" y="103.0" width="4.1" height="34.2" fill="#ef5350"/><line x1="286.5" x2="286.5" y1="110.3" y2="142.0" stroke="#26a69a" stroke-width="1"/><rect x="284.5" y="119.6" width="4.1" height="17.5" fill="#26a69a"/><line x1="292.4" x2="292.4" y1="46.7" y2="132.9" stroke="#26a69a" stroke-width="1"/><rect x="290.4" y="76.5" width="4.1" height="43.1" fill="#26a69a"/><line x1="298.3" x2="298.3" y1="44.9" y2="103.0" stroke="#26a69a" stroke-width="1"/><rect x="296.2" y="67.2" width="4.1" height="9.3" fill="#26a69a"/><line x1="304.1" x2="304.1" y1="57.0" y2="110.3" stroke="#ef5350" stroke-width="1"/><rect x="302.1" y="67.2" width="4.1" height="42.3" fill="#ef5350"/><line x1="310.0" x2="310.0" y1="91.8" y2="115.8" stroke="#26a69a" stroke-width="1"/><rect x="308.0" y="106.5" width="4.1" height="3.0" fill="#26a69a"/><line x1="315.9" x2="315.9" y1="106.5" y2="173.7" stroke="#ef5350" stroke-width="1"/><rect x="313.8" y="106.5" width="4.1" height="64.5" fill="#ef5350"/><line x1="321.7" x2="321.7" y1="147.9" y2="196.8" stroke="#26a69a" stroke-width="1"/><rect x="319.7" y="165.5" width="4.1" height="5.5" fill="#26a69a"/><line x1="327.6" x2="327.6" y1="142.5" y2="177.1" stroke="#ef5350" stroke-width="1"/><rect x="325.6" y="165.5" width="4.1" height="0.8" fill="#ef5350"/><line x1="333.5" x2="333.5" y1="163.5" y2="198.2" stroke="#ef5350" stroke-width="1"/><rect x="331.4" y="166.0" width="4.1" height="7.3" fill="#ef5350"/><line x1="339.3" x2="339.3" y1="173.4" y2="197.4" stroke="#ef5350" stroke-width="1"/><rect x="337.3" y="173.4" width="4.1" height="18.4" fill="#ef5350"/><line x1="345.2" x2="345.2" y1="161.5" y2="197.8" stroke="#26a69a" stroke-width="1"/><rect x="343.2" y="162.4" width="4.1" height="29.4" fill="#26a69a"/><line x1="351.1" x2="351.1" y1="153.7" y2="196.5" stroke="#ef5350" stroke-width="1"/><rect x="349.1" y="162.4" width="4.1" height="32.2" fill="#ef5350"/><line x1="357.0" x2="357.0" y1="188.7" y2="220.9" stroke="#26a69a" stroke-width="1"/><rect x="354.9" y="192.7" width="4.1" height="1.9" fill="#26a69a"/><line x1="362.8" x2="362.8" y1="159.0" y2="200.4" stroke="#26a69a" stroke-width="1"/><rect x="360.8" y="174.5" width="4.1" height="18.2" fill="#26a69a"/><line x1="368.7" x2="368.7" y1="173.5" y2="218.9" stroke="#ef5350" stroke-width="1"/><rect x="366.7" y="174.5" width="4.1" height="37.8" fill="#ef5350"/><line x1="374.6" x2="374.6" y1="165.3" y2="216.2" stroke="#26a69a" stroke-width="1"/><rect x="372.5" y="171.1" width="4.1" height="41.1" fill="#26a69a"/><line x1="380.4" x2="380.4" y1="128.1" y2="175.8" stroke="#26a69a" stroke-width="1"/><rect x="378.4" y="130.2" width="4.1" height="40.9" fill="#26a69a"/><line x1="386.3" x2="386.3" y1="98.4" y2="137.0" stroke="#26a69a" stroke-width="1"/><rect x="384.3" y="115.7" width="4.1" height="14.5" fill="#26a69a"/><line x1="392.2" x2="392.2" y1="115.7" y2="152.0" stroke="#ef5350" stroke-width="1"/><rect x="390.1" y="115.7" width="4.1" height="18.0" fill="#ef5350"/><line x1="398.0" x2="398.0" y1="123.5" y2="174.9" stroke="#ef5350" stroke-width="1"/><rect x="396.0" y="133.8" width="4.1" height="29.1" fill="#ef5350"/><line x1="403.9" x2="403.9" y1="155.3" y2="183.7" stroke="#ef5350" stroke-width="1"/><rect x="401.9" y="162.8" width="4.1" height="5.7" fill="#ef5350"/><line x1="409.8" x2="409.8" y1="128.5" y2="209.5" stroke="#ef5350" stroke-width="1"/><rect x="407.8" y="168.5" width="4.1" height="40.0" fill="#ef5350"/><line x1="415.7" x2="415.7" y1="184.9" y2="255.8" stroke="#ef5350" stroke-width="1"/><rect x="413.6" y="208.4" width="4.1" height="19.1" fill="#ef5350"/><line x1="421.5" x2="421.5" y1="190.8" y2="235.1" stroke="#ef5350" stroke-width="1"/><rect x="419.5" y="227.5" width="4.1" height="3.4" fill="#ef5350"/><line x1="427.4" x2="427.4" y1="225.0" y2="245.9" stroke="#ef5350" stroke-width="1"/><rect x="425.4" y="230.9" width="4.1" height="5.4" fill="#ef5350"/><line x1="433.3" x2="433.3" y1="178.2" y2="236.9" stroke="#26a69a" stroke-width="1"/><rect x="431.2" y="197.4" width="4.1" height="38.9" fill="#26a69a"/><line x1="439.1" x2="439.1" y1="187.7" y2="214.1" stroke="#26a69a" stroke-width="1"/><rect x="437.1" y="197.3" width="4.1" height="0.8" fill="#26a69a"/><line x1="445.0" x2="445.0" y1="183.6" y2="208.9" stroke="#26a69a" stroke-width="1"/><rect x="443.0" y="194.1" width="4.1" height="3.3" fill="#26a69a"/><line x1="450.9" x2="450.9" y1="194.1" y2="236.0" stroke="#ef5350" stroke-width="1"/><rect x="448.8" y="194.1" width="4.1" height="35.2" fill="#ef5350"/><line x1="456.7" x2="456.7" y1="215.5" y2="231.0" stroke="#26a69a" stroke-width="1"/><rect x="454.7" y="219.6" width="4.1" height="9.7" fill="#26a69a"/><line x1="462.6" x2="462.6" y1="218.6" y2="236.7" stroke="#ef5350" stroke-width="1"/><rect x="460.6" y="219.6" width="4.1" height="8.2" fill="#ef5350"/><line x1="468.5" x2="468.5" y1="223.7" y2="249.6" stroke="#ef5350" stroke-width="1"/><rect x="466.4" y="227.8" width="4.1" height="18.2" fill="#ef5350"/><line x1="474.3" x2="474.3" y1="202.4" y2="246.4" stroke="#26a69a" stroke-width="1"/><rect x="472.3" y="210.1" width="4.1" height="35.9" fill="#26a69a"/><line x1="480.2" x2="480.2" y1="205.8" y2="231.5" stroke="#ef5350" stroke-width="1"/><rect x="478.2" y="210.1" width="4.1" height="9.8" fill="#ef5350"/><line x1="486.1" x2="486.1" y1="218.7" y2="239.9" stroke="#ef5350" stroke-width="1"/><rect x="484.1" y="219.9" width="4.1" height="15.8" fill="#ef5350"/><line x1="492.0" x2="492.0" y1="232.4" y2="267.6" stroke="#ef5350" stroke-width="1"/><rect x="489.9" y="235.7" width="4.1" height="18.0" fill="#ef5350"/><line x1="497.8" x2="497.8" y1="238.5" y2="263.1" stroke="#26a69a" stroke-width="1"/><rect x="495.8" y="243.1" width="4.1" height="10.5" fill="#26a69a"/><line x1="503.7" x2="503.7" y1="221.6" y2="249.3" stroke="#26a69a" stroke-width="1"/><rect x="501.7" y="222.3" width="4.1" height="20.8" fill="#26a69a"/><line x1="509.6" x2="509.6" y1="218.8" y2="234.2" stroke="#ef5350" stroke-width="1"/><rect x="507.5" y="222.3" width="4.1" height="11.3" fill="#ef5350"/><line x1="515.4" x2="515.4" y1="223.3" y2="255.1" stroke="#ef5350" stroke-width="1"/><rect x="513.4" y="233.7" width="4.1" height="19.4" fill="#ef5350"/><line x1="521.3" x2="521.3" y1="224.1" y2="263.7" stroke="#26a69a" stroke-width="1"/><rect x="519.3" y="224.3" width="4.1" height="28.8" fill="#26a69a"/><line x1="527.2" x2="527.2" y1="220.2" y2="246.2" stroke="#ef5350" stroke-width="1"/><rect x="525.1" y="224.3" width="4.1" height="13.7" fill="#ef5350"/><line x1="533.0" x2="533.0" y1="238.0" y2="286.2" stroke="#ef5350" stroke-width="1"/><rect x="531.0" y="238.0" width="4.1" height="22.3" fill="#ef5350"/><line x1="538.9" x2="538.9" y1="254.2" y2="287.5" stroke="#ef5350" stroke-width="1"/><rect x="536.9" y="260.3" width="4.1" height="3.0" fill="#ef5350"/><line x1="544.8" x2="544.8" y1="250.2" y2="355.1" stroke="#ef5350" stroke-width="1"/><rect x="542.8" y="263.3" width="4.1" height="71.6" fill="#ef5350"/><line x1="550.7" x2="550.7" y1="329.5" y2="379.8" stroke="#ef5350" stroke-width="1"/><rect x="548.6" y="334.9" width="4.1" height="15.2" fill="#ef5350"/><line x1="556.5" x2="556.5" y1="340.4" y2="377.5" stroke="#ef5350" stroke-width="1"/><rect x="554.5" y="350.2" width="4.1" height="8.4" fill="#ef5350"/><line x1="562.4" x2="562.4" y1="346.0" y2="379.8" stroke="#ef5350" stroke-width="1"/><rect x="560.4" y="358.6" width="4.1" height="17.3" fill="#ef5350"/><line x1="568.3" x2="568.3" y1="358.3" y2="397.8" stroke="#26a69a" stroke-width="1"/><rect x="566.2" y="369.0" width="4.1" height="6.9" fill="#26a69a"/><line x1="574.1" x2="574.1" y1="337.6" y2="369.4" stroke="#26a69a" stroke-width="1"/><rect x="572.1" y="350.7" width="4.1" height="18.3" fill="#26a69a"/><line x1="580.0" x2="580.0" y1="341.0" y2="366.7" stroke="#ef5350" stroke-width="1"/><rect x="578.0" y="350.7" width="4.1" height="14.5" fill="#ef5350"/><line x1="40" x2="580" y1="349.7" y2="349.7" stroke="#e0e0e0" stroke-dasharray="6 3" stroke-width="1"/><text x="582" y="353.7" fill="#e0e0e0" font-size="10">entry 1.36195</text><line x1="40" x2="580" y1="384.3" y2="384.3" stroke="#ef5350" stroke-dasharray="6 3" stroke-width="1"/><text x="582" y="388.3" fill="#ef5350" font-size="10">SL 1.34963</text><line x1="40" x2="580" y1="41.8" y2="41.8" stroke="#26a69a" stroke-dasharray="6 3" stroke-width="1"/><text x="582" y="45.8" fill="#26a69a" font-size="10">TP 1.47147</text><line x1="40" x2="580" y1="40.0" y2="40.0" stroke="#b388ff" stroke-dasharray="6 3" stroke-width="1"/><text x="582" y="44.0" fill="#b388ff" font-size="10">HH/LL 1.4721</text><line x1="40" x2="580" y1="212.2" y2="212.2" stroke="#9e9e9e" stroke-dasharray="2 3" stroke-width="1"/><text x="582" y="216.2" fill="#9e9e9e" font-size="10">50% 1.41087</text><circle cx="548.6" cy="349.7" r="4" fill="none" stroke="#e0e0e0" stroke-width="2"><title>fill</title></circle><circle cx="568.8" cy="385.6" r="4" fill="none" stroke="#e0e0e0" stroke-width="2"><title>exit</title></circle><text x="720" y="22" fill="#d1d4dc" font-size="13">15m</text><rect x="720.0" y="369.0" width="540.0" height="36.8" fill="rgba(38,166,154,0.22)"/><rect x="720.0" y="364.9" width="540.0" height="4.1" fill="rgba(84,160,255,0.22)"/><line x1="720.0" x2="720.0" y1="245.0" y2="252.3" stroke="#26a69a" stroke-width="1"/><rect x="717.1" y="247.9" width="5.7" height="2.0" fill="#26a69a"/><line x1="728.3" x2="728.3" y1="244.4" y2="281.8" stroke="#ef5350" stroke-width="1"/><rect x="725.4" y="247.9" width="5.7" height="21.1" fill="#ef5350"/><line x1="736.6" x2="736.6" y1="258.0" y2="272.0" stroke="#26a69a" stroke-width="1"/><rect x="733.8" y="259.4" width="5.7" height="9.6" fill="#26a69a"/><line x1="744.9" x2="744.9" y1="254.3" y2="264.3" stroke="#26a69a" stroke-width="1"/><rect x="742.1" y="255.5" width="5.7" height="3.9" fill="#26a69a"/><line x1="753.2" x2="753.2" y1="248.4" y2="272.3" stroke="#ef5350" stroke-width="1"/><rect x="750.4" y="255.5" width="5.7" height="11.4" fill="#ef5350"/><line x1="761.5" x2="761.5" y1="261.6" y2="277.0" stroke="#ef5350" stroke-width="1"/><rect x="758.7" y="267.0" width="5.7" height="6.5" fill="#ef5350"/><line x1="769.8" x2="769.8" y1="252.5" y2="276.6" stroke="#26a69a" stroke-width="1"/><rect x="767.0" y="258.4" width="5.7" height="15.1" fill="#26a69a"/><line x1="778.2" x2="778.2" y1="253.8" y2="264.5" stroke="#ef5350" stroke-width="1"/><rect x="775.3" y="258.4" width="5.7" height="2.3" fill="#ef5350"/><line x1="786.5" x2="786.5" y1="250.8" y2="263.4" stroke="#26a69a" stroke-width="1"/><rect x="783.6" y="255.8" width="5.7" height="4.9" fill="#26a69a"/><line x1="794.8" x2="794.8" y1="249.4" y2="258.9" stroke="#26a69a" stroke-width="1"/><rect x="791.9" y="249.7" width="5.7" height="6.1" fill="#26a69a"/><line x1="803.1" x2="803.1" y1="238.8" y2="252.8" stroke="#ef5350" stroke-width="1"/><rect x="800.2" y="249.7" width="5.7" height="2.6" fill="#ef5350"/><line x1="811.4" x2="811.4" y1="245.0" y2="262.3" stroke="#ef5350" stroke-width="1"/><rect x="808.5" y="252.2" width="5.7" height="5.2" fill="#ef5350"/><line x1="819.7" x2="819.7" y1="232.8" y2="257.9" stroke="#26a69a" stroke-width="1"/><rect x="816.8" y="233.7" width="5.7" height="23.7" fill="#26a69a"/><line x1="828.0" x2="828.0" y1="231.3" y2="239.3" stroke="#ef5350" stroke-width="1"/><rect x="825.1" y="233.7" width="5.7" height="0.8" fill="#ef5350"/><line x1="836.3" x2="836.3" y1="229.9" y2="236.3" stroke="#26a69a" stroke-width="1"/><rect x="833.4" y="231.8" width="5.7" height="2.0" fill="#26a69a"/><line x1="844.6" x2="844.6" y1="231.8" y2="243.8" stroke="#ef5350" stroke-width="1"/><rect x="841.8" y="231.8" width="5.7" height="5.9" fill="#ef5350"/><line x1="852.9" x2="852.9" y1="234.8" y2="246.3" stroke="#ef5350" stroke-width="1"/><rect x="850.1" y="237.7" width="5.7" height="8.0" fill="#ef5350"/><line x1="861.2" x2="861.2" y1="241.1" y2="251.1" stroke="#26a69a" stroke-width="1"/><rect x="858.4" y="245.2" width="5.7" height="0.8" fill="#26a69a"/><line x1="869.5" x2="869.5" y1="236.4" y2="245.6" stroke="#26a69a" stroke-width="1"/><rect x="866.7" y="240.8" width="5.7" height="4.4" fill="#26a69a"/><line x1="877.8" x2="877.8" y1="234.7" y2="258.3" stroke="#ef5350" stroke-width="1"/><rect x="875.0" y="240.8" width="5.7" height="12.4" fill="#ef5350"/><line x1="886.2" x2="886.2" y1="249.9" y2="268.5" stroke="#ef5350" stroke-width="1"/><rect x="883.3" y="253.3" width="5.7" height="13.1" fill="#ef5350"/><line x1="894.5" x2="894.5" y1="263.3" y2="277.6" stroke="#ef5350" stroke-width="1"/><rect x="891.6" y="266.3" width="5.7" height="3.8" fill="#ef5350"/><line x1="902.8" x2="902.8" y1="258.5" y2="276.9" stroke="#26a69a" stroke-width="1"/><rect x="899.9" y="259.6" width="5.7" height="10.5" fill="#26a69a"/><line x1="911.1" x2="911.1" y1="243.3" y2="261.3" stroke="#26a69a" stroke-width="1"/><rect x="908.2" y="245.0" width="5.7" height="14.7" fill="#26a69a"/><line x1="919.4" x2="919.4" y1="235.5" y2="245.8" stroke="#26a69a" stroke-width="1"/><rect x="916.5" y="235.7" width="5.7" height="9.3" fill="#26a69a"/><line x1="927.7" x2="927.7" y1="231.4" y2="245.4" stroke="#ef5350" stroke-width="1"/><rect x="924.8" y="235.7" width="5.7" height="6.6" fill="#ef5350"/><line x1="936.0" x2="936.0" y1="242.3" y2="249.9" stroke="#ef5350" stroke-width="1"/><rect x="933.1" y="242.3" width="5.7" height="6.2" fill="#ef5350"/><line x1="944.3" x2="944.3" y1="241.1" y2="259.0" stroke="#26a69a" stroke-width="1"/><rect x="941.4" y="245.3" width="5.7" height="3.2" fill="#26a69a"/><line x1="952.6" x2="952.6" y1="245.0" y2="253.2" stroke="#ef5350" stroke-width="1"/><rect x="949.8" y="245.3" width="5.7" height="5.0" fill="#ef5350"/><line x1="960.9" x2="960.9" y1="250.3" y2="266.6" stroke="#ef5350" stroke-width="1"/><rect x="958.1" y="250.3" width="5.7" height="15.1" fill="#ef5350"/><line x1="969.2" x2="969.2" y1="263.4" y2="272.9" stroke="#ef5350" stroke-width="1"/><rect x="966.4" y="265.4" width="5.7" height="2.2" fill="#ef5350"/><line x1="977.5" x2="977.5" y1="267.6" y2="301.6" stroke="#ef5350" stroke-width="1"/><rect x="974.7" y="267.6" width="5.7" height="20.9" fill="#ef5350"/><line x1="985.8" x2="985.8" y1="264.4" y2="288.5" stroke="#26a69a" stroke-width="1"/><rect x="983.0" y="274.0" width="5.7" height="14.5" fill="#26a69a"/><line x1="994.2" x2="994.2" y1="272.2" y2="298.3" stroke="#ef5350" stroke-width="1"/><rect x="991.3" y="274.0" width="5.7" height="21.9" fill="#ef5350"/><line x1="1002.5" x2="1002.5" y1="281.4" y2="302.9" stroke="#26a69a" stroke-width="1"/><rect x="999.6" y="288.6" width="5.7" height="7.2" fill="#26a69a"/><line x1="1010.8" x2="1010.8" y1="284.4" y2="292.6" stroke="#26a69a" stroke-width="1"/><rect x="1007.9" y="287.5" width="5.7" height="1.1" fill="#26a69a"/><line x1="1019.1" x2="1019.1" y1="267.5" y2="292.1" stroke="#26a69a" stroke-width="1"/><rect x="1016.2" y="277.2" width="5.7" height="10.3" fill="#26a69a"/><line x1="1027.4" x2="1027.4" y1="263.2" y2="303.8" stroke="#ef5350" stroke-width="1"/><rect x="1024.5" y="277.2" width="5.7" height="10.2" fill="#ef5350"/><line x1="1035.7" x2="1035.7" y1="287.2" y2="341.5" stroke="#ef5350" stroke-width="1"/><rect x="1032.8" y="287.4" width="5.7" height="53.3" fill="#ef5350"/><line x1="1044.0" x2="1044.0" y1="336.6" y2="374.7" stroke="#ef5350" stroke-width="1"/><rect x="1041.1" y="340.7" width="5.7" height="21.5" fill="#ef5350"/><line x1="1052.3" x2="1052.3" y1="347.5" y2="366.7" stroke="#26a69a" stroke-width="1"/><rect x="1049.4" y="353.3" width="5.7" height="8.9" fill="#26a69a"/><line x1="1060.6" x2="1060.6" y1="347.5" y2="392.5" stroke="#ef5350" stroke-width="1"/><rect x="1057.8" y="353.3" width="5.7" height="23.2" fill="#ef5350"/><line x1="1068.9" x2="1068.9" y1="366.5" y2="400.9" stroke="#ef5350" stroke-width="1"/><rect x="1066.1" y="376.5" width="5.7" height="11.3" fill="#ef5350"/><line x1="1077.2" x2="1077.2" y1="373.5" y2="392.3" stroke="#26a69a" stroke-width="1"/><rect x="1074.4" y="379.2" width="5.7" height="8.6" fill="#26a69a"/><line x1="1085.5" x2="1085.5" y1="357.5" y2="380.0" stroke="#26a69a" stroke-width="1"/><rect x="1082.7" y="369.5" width="5.7" height="9.7" fill="#26a69a"/><line x1="1093.8" x2="1093.8" y1="359.1" y2="380.6" stroke="#ef5350" stroke-width="1"/><rect x="1091.0" y="369.5" width="5.7" height="7.7" fill="#ef5350"/><line x1="1102.2" x2="1102.2" y1="377.2" y2="398.5" stroke="#ef5350" stroke-width="1"/><rect x="1099.3" y="377.2" width="5.7" height="11.5" fill="#ef5350"/><line x1="1110.5" x2="1110.5" y1="373.2" y2="393.4" stroke="#26a69a" stroke-width="1"/><rect x="1107.6" y="386.4" width="5.7" height="2.3" fill="#26a69a"/><line x1="1118.8" x2="1118.8" y1="377.3" y2="389.5" stroke="#26a69a" stroke-width="1"/><rect x="1115.9" y="378.4" width="5.7" height="8.0" fill="#26a69a"/><line x1="1127.1" x2="1127.1" y1="367.1" y2="383.2" stroke="#26a69a" stroke-width="1"/><rect x="1124.2" y="372.3" width="5.7" height="6.1" fill="#26a69a"/><line x1="1135.4" x2="1135.4" y1="365.0" y2="388.6" stroke="#ef5350" stroke-width="1"/><rect x="1132.5" y="372.3" width="5.7" height="11.2" fill="#ef5350"/><line x1="1143.7" x2="1143.7" y1="376.9" y2="387.2" stroke="#ef5350" stroke-width="1"/><rect x="1140.8" y="383.5" width="5.7" height="2.6" fill="#ef5350"/><line x1="1152.0" x2="1152.0" y1="381.1" y2="400.9" stroke="#ef5350" stroke-width="1"/><rect x="1149.1" y="386.2" width="5.7" height="10.7" fill="#ef5350"/><line x1="1160.3" x2="1160.3" y1="396.3" y2="420.0" stroke="#ef5350" stroke-width="1"/><rect x="1157.4" y="396.8" width="5.7" height="11.9" fill="#ef5350"/><line x1="1168.6" x2="1168.6" y1="400.2" y2="411.4" stroke="#26a69a" stroke-width="1"/><rect x="1165.8" y="408.3" width="5.7" height="0.8" fill="#26a69a"/><line x1="1176.9" x2="1176.9" y1="387.4" y2="409.2" stroke="#26a69a" stroke-width="1"/><rect x="1174.1" y="387.4" width="5.7" height="20.9" fill="#26a69a"/><line x1="1185.2" x2="1185.2" y1="378.0" y2="391.3" stroke="#ef5350" stroke-width="1"/><rect x="1182.4" y="387.4" width="5.7" height="2.1" fill="#ef5350"/><line x1="1193.5" x2="1193.5" y1="368.7" y2="389.9" stroke="#26a69a" stroke-width="1"/><rect x="1190.7" y="370.0" width="5.7" height="19.4" fill="#26a69a"/><line x1="1201.8" x2="1201.8" y1="366.1" y2="381.4" stroke="#ef5350" stroke-width="1"/><rect x="1199.0" y="370.0" width="5.7" height="10.1" fill="#ef5350"/><line x1="1210.2" x2="1210.2" y1="359.1" y2="380.3" stroke="#26a69a" stroke-width="1"/><rect x="1207.3" y="359.1" width="5.7" height="21.0" fill="#26a69a"/><line x1="1218.5" x2="1218.5" y1="356.1" y2="372.3" stroke="#ef5350" stroke-width="1"/><rect x="1215.6" y="359.1" width="5.7" height="10.9" fill="#ef5350"/><line x1="1226.8" x2="1226.8" y1="359.7" y2="370.6" stroke="#ef5350" stroke-width="1"/><rect x="1223.9" y="370.0" width="5.7" height="0.8" fill="#ef5350"/><line x1="1235.1" x2="1235.1" y1="361.9" y2="375.9" stroke="#26a69a" stroke-width="1"/><rect x="1232.2" y="363.7" width="5.7" height="6.9" fill="#26a69a"/><line x1="1243.4" x2="1243.4" y1="360.9" y2="374.5" stroke="#ef5350" stroke-width="1"/><rect x="1240.5" y="363.7" width="5.7" height="9.4" fill="#ef5350"/><line x1="1251.7" x2="1251.7" y1="370.0" y2="387.1" stroke="#ef5350" stroke-width="1"/><rect x="1248.8" y="373.1" width="5.7" height="12.3" fill="#ef5350"/><line x1="1260.0" x2="1260.0" y1="375.7" y2="390.4" stroke="#26a69a" stroke-width="1"/><rect x="1257.1" y="383.5" width="5.7" height="1.9" fill="#26a69a"/><line x1="720" x2="1260" y1="369.0" y2="369.0" stroke="#e0e0e0" stroke-dasharray="6 3" stroke-width="1"/><text x="1262" y="373.0" fill="#e0e0e0" font-size="10">entry 1.36195</text><line x1="720" x2="1260" y1="405.8" y2="405.8" stroke="#ef5350" stroke-dasharray="6 3" stroke-width="1"/><text x="1262" y="409.8" fill="#ef5350" font-size="10">SL 1.34963</text><line x1="720" x2="1260" y1="41.9" y2="41.9" stroke="#26a69a" stroke-dasharray="6 3" stroke-width="1"/><text x="1262" y="45.9" fill="#26a69a" font-size="10">TP 1.47147</text><line x1="720" x2="1260" y1="40.0" y2="40.0" stroke="#b388ff" stroke-dasharray="6 3" stroke-width="1"/><text x="1262" y="44.0" fill="#b388ff" font-size="10">HH/LL 1.4721</text><line x1="720" x2="1260" y1="222.9" y2="222.9" stroke="#9e9e9e" stroke-dasharray="2 3" stroke-width="1"/><text x="1262" y="226.9" fill="#9e9e9e" font-size="10">50% 1.41087</text><circle cx="1049.0" cy="369.0" r="4" fill="none" stroke="#e0e0e0" stroke-width="2"><title>fill</title></circle><circle cx="1163.1" cy="407.1" r="4" fill="none" stroke="#e0e0e0" stroke-width="2"><title>exit</title></circle></svg>