<svg xmlns="http://www.w3.org/2000/svg" width="1360" height="460" font-family="sans-serif"><rect width="100%" height="100%" fill="#131722"/><text x="40" y="22" fill="#d1d4dc" font-size="13">#9 XRPUSDT LONG 2026-04-02 01:05 UTC (wide) · 1h</text><rect x="334.5" y="217.1" width="245.5" height="39.6" fill="rgba(38,166,154,0.22)"/><rect x="334.5" y="200.3" width="245.5" height="16.9" fill="rgba(84,160,255,0.22)"/><line x1="40.0" x2="40.0" y1="295.4" y2="343.2" stroke="#26a69a" stroke-width="1"/><rect x="36.6" y="299.9" width="6.7" height="18.7" fill="#26a69a"/><line x1="49.8" x2="49.8" y1="240.6" y2="310.0" stroke="#26a69a" stroke-width="1"/><rect x="46.4" y="256.5" width="6.7" height="43.3" fill="#26a69a"/><line x1="59.6" x2="59.6" y1="237.8" y2="278.9" stroke="#26a69a" stroke-width="1"/><rect x="56.3" y="256.3" width="6.7" height="0.8" fill="#26a69a"/><line x1="69.5" x2="69.5" y1="256.3" y2="325.2" stroke="#ef5350" stroke-width="1"/><rect x="66.1" y="256.3" width="6.7" height="42.6" fill="#ef5350"/><line x1="79.3" x2="79.3" y1="293.8" y2="328.6" stroke="#26a69a" stroke-width="1"/><rect x="75.9" y="297.4" width="6.7" height="1.6" fill="#26a69a"/><line x1="89.1" x2="89.1" y1="216.9" y2="318.2" stroke="#26a69a" stroke-width="1"/><rect x="85.7" y="226.9" width="6.7" height="70.5" fill="#26a69a"/><line x1="98.9" x2="98.9" y1="155.7" y2="228.8" stroke="#26a69a" stroke-width="1"/><rect x="95.5" y="208.7" width="6.7" height="18.2" fill="#26a69a"/><line x1="108.7" x2="108.7" y1="205.7" y2="268.3" stroke="#ef5350" stroke-width="1"/><rect x="105.4" y="208.7" width="6.7" height="58.4" fill="#ef5350"/><line x1="118.5" x2="118.5" y1="260.9" y2="318.2" stroke="#ef5350" stroke-width="1"/><rect x="115.2" y="267.2" width="6.7" height="47.7" fill="#ef5350"/><line x1="128.4" x2="128.4" y1="273.7" y2="323.5" stroke="#26a69a" stroke-width="1"/><rect x="125.0" y="275.6" width="6.7" height="39.3" fill="#26a69a"/><line x1="138.2" x2="138.2" y1="268.7" y2="353.7" stroke="#ef5350" stroke-width="1"/><rect x="134.8" y="275.6" width="6.7" height="21.1" fill="#ef5350"/><line x1="148.0" x2="148.0" y1="272.6" y2="348.9" stroke="#ef5350" stroke-width="1"/><rect x="144.6" y="296.7" width="6.7" height="52.2" fill="#ef5350"/><line x1="157.8" x2="157.8" y1="298.4" y2="358.8" stroke="#26a69a" stroke-width="1"/><rect x="154.4" y="311.8" width="6.7" height="37.1" fill="#26a69a"/><line x1="167.6" x2="167.6" y1="311.5" y2="389.8" stroke="#ef5350" stroke-width="1"/><rect x="164.3" y="311.8" width="6.7" height="69.7" fill="#ef5350"/><line x1="177.5" x2="177.5" y1="360.0" y2="420.0" stroke="#26a69a" stroke-width="1"/><rect x="174.1" y="378.5" width="6.7" height="3.0" fill="#26a69a"/><line x1="187.3" x2="187.3" y1="352.7" y2="405.7" stroke="#26a69a" stroke-width="1"/><rect x="183.9" y="356.1" width="6.7" height="22.4" fill="#26a69a"/><line x1="197.1" x2="197.1" y1="325.6" y2="370.4" stroke="#26a69a" stroke-width="1"/><rect x="193.7" y="325.6" width="6.7" height="30.5" fill="#26a69a"/><line x1="206.9" x2="206.9" y1="322.3" y2="365.2" stroke="#26a69a" stroke-width="1"/><rect x="203.5" y="323.7" width="6.7" height="1.9" fill="#26a69a"/><line x1="216.7" x2="216.7" y1="218.7" y2="330.5" stroke="#26a69a" stroke-width="1"/><rect x="213.4" y="236.9" width="6.7" height="86.8" fill="#26a69a"/><line x1="226.5" x2="226.5" y1="234.2" y2="382.4" stroke="#ef5350" stroke-width="1"/><rect x="223.2" y="236.9" width="6.7" height="69.9" fill="#ef5350"/><line x1="236.4" x2="236.4" y1="299.1" y2="360.1" stroke="#ef5350" stroke-width="1"/><rect x="233.0" y="306.8" width="6.7" height="24.8" fill="#ef5350"/><line x1="246.2" x2="246.2" y1="174.5" y2="354.3" stroke="#26a69a" stroke-width="1"/><rect x="242.8" y="213.4" width="6.7" height="118.2" fill="#26a69a"/><line x1="256.0" x2="256.0" y1="192.1" y2="281.0" stroke="#26a69a" stroke-width="1"/><rect x="252.6" y="209.3" width="6.7" height="4.1" fill="#26a69a"/><line x1="265.8" x2="265.8" y1="180.1" y2="217.8" stroke="#26a69a" stroke-width="1"/><rect x="262.4" y="195.2" width="6.7" height="14.1" fill="#26a69a"/><line x1="275.6" x2="275.6" y1="146.7" y2="205.1" stroke="#26a69a" stroke-width="1"/><rect x="272.3" y="176.8" width="6.7" height="18.5" fill="#26a69a"/><line x1="285.5" x2="285.5" y1="165.1" y2="220.0" stroke="#ef5350" stroke-width="1"/><rect x="282.1" y="176.8" width="6.7" height="35.6" fill="#ef5350"/><line x1="295.3" x2="295.3" y1="177.5" y2="233.3" stroke="#ef5350" stroke-width="1"/><rect x="291.9" y="212.4" width="6.7" height="16.8" fill="#ef5350"/><line x1="305.1" x2="305.1" y1="204.8" y2="250.0" stroke="#26a69a" stroke-width="1"/><rect x="301.7" y="207.1" width="6.7" height="22.1" fill="#26a69a"/><line x1="314.9" x2="314.9" y1="192.8" y2="214.0" stroke="#26a69a" stroke-width="1"/><rect x="311.5" y="197.5" width="6.7" height="9.7" fill="#26a69a"/><line x1="324.7" x2="324.7" y1="171.8" y2="223.3" stroke="#ef5350" stroke-width="1"/><rect x="321.4" y="197.5" width="6.7" height="22.0" fill="#ef5350"/><line x1="334.5" x2="334.5" y1="217.1" y2="256.7" stroke="#ef5350" stroke-width="1"/><rect x="331.2" y="219.4" width="6.7" height="34.9" fill="#ef5350"/><line x1="344.4" x2="344.4" y1="179.5" y2="257.0" stroke="#26a69a" stroke-width="1"/><rect x="341.0" y="199.0" width="6.7" height="55.4" fill="#26a69a"/><line x1="354.2" x2="354.2" y1="140.5" y2="200.3" stroke="#26a69a" stroke-width="1"/><rect x="350.8" y="194.8" width="6.7" height="4.1" fill="#26a69a"/><line x1="364.0" x2="364.0" y1="154.9" y2="228.7" stroke="#26a69a" stroke-width="1"/><rect x="360.6" y="166.1" width="6.7" height="28.7" fill="#26a69a"/><line x1="373.8" x2="373.8" y1="105.2" y2="196.6" stroke="#26a69a" stroke-width="1"/><rect x="370.4" y="108.4" width="6.7" height="57.7" fill="#26a69a"/><line x1="383.6" x2="383.6" y1="51.0" y2="111.6" stroke="#26a69a" stroke-width="1"/><rect x="380.3" y="92.6" width="6.7" height="15.8" fill="#26a69a"/><line x1="393.5" x2="393.5" y1="70.1" y2="136.3" stroke="#ef5350" stroke-width="1"/><rect x="390.1" y="92.6" width="6.7" height="21.7" fill="#ef5350"/><line x1="403.3" x2="403.3" y1="97.2" y2="151.1" stroke="#ef5350" stroke-width="1"/><rect x="399.9" y="114.3" width="6.7" height="26.3" fill="#ef5350"/><line x1="413.1" x2="413.1" y1="127.0" y2="155.0" stroke="#ef5350" stroke-width="1"/><rect x="409.7" y="140.6" width="6.7" height="8.3" fill="#ef5350"/><line x1="422.9" x2="422.9" y1="117.1" y2="155.6" stroke="#26a69a" stroke-width="1"/><rect x="419.5" y="132.7" width="6.7" height="16.1" fill="#26a69a"/><line x1="432.7" x2="432.7" y1="112.2" y2="136.2" stroke="#26a69a" stroke-width="1"/><rect x="429.4" y="123.3" width="6.7" height="9.4" fill="#26a69a"/><line x1="442.5" x2="442.5" y1="97.8" y2="146.2" stroke="#26a69a" stroke-width="1"/><rect x="439.2" y="108.9" width="6.7" height="14.5" fill="#26a69a"/><line x1="452.4" x2="452.4" y1="108.8" y2="173.4" stroke="#ef5350" stroke-width="1"/><rect x="449.0" y="108.9" width="6.7" height="4.9" fill="#ef5350"/><line x1="462.2" x2="462.2" y1="95.8" y2="147.7" stroke="#ef5350" stroke-width="1"/><rect x="458.8" y="113.8" width="6.7" height="7.1" fill="#ef5350"/><line x1="472.0" x2="472.0" y1="99.1" y2="134.4" stroke="#26a69a" stroke-width="1"/><rect x="468.6" y="113.7" width="6.7" height="7.2" fill="#26a69a"/><line x1="481.8" x2="481.8" y1="40.0" y2="114.6" stroke="#ef5350" stroke-width="1"/><rect x="478.4" y="113.7" width="6.7" height="0.9" fill="#ef5350"/><line x1="491.6" x2="491.6" y1="114.5" y2="163.5" stroke="#ef5350" stroke-width="1"/><rect x="488.3" y="114.6" width="6.7" height="43.4" fill="#ef5350"/><line x1="501.5" x2="501.5" y1="139.8" y2="168.6" stroke="#26a69a" stroke-width="1"/><rect x="498.1" y="141.3" width="6.7" height="16.7" fill="#26a69a"/><line x1="511.3" x2="511.3" y1="130.2" y2="173.5" stroke="#ef5350" stroke-width="1"/><rect x="507.9" y="141.3" width="6.7" height="27.7" fill="#ef5350"/><line x1="521.1" x2="521.1" y1="117.0" y2="183.1" stroke="#26a69a" stroke-width="1"/><rect x="517.7" y="123.2" width="6.7" height="45.8" fill="#26a69a"/><line x1="530.9" x2="530.9" y1="108.5" y2="161.0" stroke="#ef5350" stroke-width="1"/><rect x="527.5" y="123.2" width="6.7" height="29.5" fill="#ef5350"/><line x1="540.7" x2="540.7" y1="140.2" y2="165.5" stroke="#26a69a" stroke-width="1"/><rect x="537.4" y="150.3" width="6.7" height="2.3" fill="#26a69a"/><line x1="550.5" x2="550.5" y1="148.3" y2="164.7" stroke="#ef5350" stroke-width="1"/><rect x="547.2" y="150.3" width="6.7" height="6.5" fill="#ef5350"/><line x1="560.4" x2="560.4" y1="108.1" y2="274.1" stroke="#ef5350" stroke-width="1"/><rect x="557.0" y="156.8" width="6.7" height="98.0" fill="#ef5350"/><line x1="570.2" x2="570.2" y1="254.8" y2="335.7" stroke="#ef5350" stroke-width="1"/><rect x="566.8" y="254.8" width="6.7" height="67.5" fill="#ef5350"/><line x1="580.0" x2="580.0" y1="299.4" y2="375.1" stroke="#ef5350" stroke-width="1"/><rect x="576.6" y="322.3" width="6.7" height="34.1" fill="#ef5350"/><line x1="40" x2="580" y1="217.1" y2="217.1" stroke="#e0e0e0" stroke-dasharray="6 3" stroke-width="1"/><text x="582" y="221.1" fill="#e0e0e0" font-size="10">entry 1.33812</text><line x1="40" x2="580" y1="256.8" y2="256.8" stroke="#ef5350" stroke-dasharray="6 3" stroke-width="1"/><text x="582" y="260.8" fill="#ef5350" font-size="10">SL 1.33151</text><line x1="40" x2="580" y1="42.5" y2="42.5" stroke="#26a69a" stroke-dasharray="6 3" stroke-width="1"/><text x="582" y="46.5" fill="#26a69a" font-size="10">TP 1.36723</text><line x1="40" x2="580" y1="40.0" y2="40.0" stroke="#b388ff" stroke-dasharray="6 3" stroke-width="1"/><text x="582" y="44.0" fill="#b388ff" font-size="10">HH/LL 1.36765</text><line x1="40" x2="580" y1="148.4" y2="148.4" stroke="#9e9e9e" stroke-dasharray="2 3" stroke-width="1"/><text x="582" y="152.4" fill="#9e9e9e" font-size="10">50% 1.349585</text><circle cx="566.1" cy="217.1" r="4" fill="none" stroke="#e0e0e0" stroke-width="2"><title>fill</title></circle><circle cx="569.7" cy="259.4" r="4" fill="none" stroke="#e0e0e0" stroke-width="2"><title>exit</title></circle><text x="720" y="22" fill="#d1d4dc" font-size="13">15m</text><rect x="720.0" y="225.4" width="540.0" height="41.4" fill="rgba(38,166,154,0.22)"/><rect x="720.0" y="207.7" width="540.0" height="17.6" fill="rgba(84,160,255,0.22)"/><line x1="720.0" x2="720.0" y1="105.4" y2="148.7" stroke="#26a69a" stroke-width="1"/><rect x="716.4" y="124.6" width="7.1" height="16.3" fill="#26a69a"/><line x1="730.4" x2="730.4" y1="109.1" y2="128.0" stroke="#26a69a" stroke-width="1"/><rect x="726.8" y="119.5" width="7.1" height="5.1" fill="#26a69a"/><line x1="740.8" x2="740.8" y1="104.7" y2="119.5" stroke="#26a69a" stroke-width="1"/><rect x="737.2" y="104.7" width="7.1" height="14.8" fill="#26a69a"/><line x1="751.2" x2="751.2" y1="101.8" y2="138.8" stroke="#ef5350" stroke-width="1"/><rect x="747.6" y="104.7" width="7.1" height="34.0" fill="#ef5350"/><line x1="761.5" x2="761.5" y1="110.9" y2="138.8" stroke="#26a69a" stroke-width="1"/><rect x="758.0" y="117.1" width="7.1" height="21.7" fill="#26a69a"/><line x1="771.9" x2="771.9" y1="78.4" y2="117.1" stroke="#26a69a" stroke-width="1"/><rect x="768.4" y="81.4" width="7.1" height="35.7" fill="#26a69a"/><line x1="782.3" x2="782.3" y1="81.4" y2="97.7" stroke="#ef5350" stroke-width="1"/><rect x="778.7" y="81.4" width="7.1" height="16.3" fill="#ef5350"/><line x1="792.7" x2="792.7" y1="40.0" y2="99.0" stroke="#26a69a" stroke-width="1"/><rect x="789.1" y="79.9" width="7.1" height="17.8" fill="#26a69a"/><line x1="803.1" x2="803.1" y1="71.8" y2="118.0" stroke="#ef5350" stroke-width="1"/><rect x="799.5" y="79.9" width="7.1" height="38.1" fill="#ef5350"/><line x1="813.5" x2="813.5" y1="118.0" y2="136.1" stroke="#ef5350" stroke-width="1"/><rect x="809.9" y="118.0" width="7.1" height="9.3" fill="#ef5350"/><line x1="823.8" x2="823.8" y1="123.1" y2="145.8" stroke="#ef5350" stroke-width="1"/><rect x="820.3" y="127.3" width="7.1" height="18.5" fill="#ef5350"/><line x1="834.2" x2="834.2" y1="139.6" y2="169.3" stroke="#ef5350" stroke-width="1"/><rect x="830.7" y="145.8" width="7.1" height="5.5" fill="#ef5350"/><line x1="844.6" x2="844.6" y1="147.0" y2="163.5" stroke="#ef5350" stroke-width="1"/><rect x="841.0" y="151.3" width="7.1" height="12.2" fill="#ef5350"/><line x1="855.0" x2="855.0" y1="144.5" y2="169.8" stroke="#26a69a" stroke-width="1"/><rect x="851.4" y="150.5" width="7.1" height="13.0" fill="#26a69a"/><line x1="865.4" x2="865.4" y1="150.5" y2="174.6" stroke="#ef5350" stroke-width="1"/><rect x="861.8" y="150.5" width="7.1" height="18.5" fill="#ef5350"/><line x1="875.8" x2="875.8" y1="148.4" y2="168.9" stroke="#26a69a" stroke-width="1"/><rect x="872.2" y="156.2" width="7.1" height="12.7" fill="#26a69a"/><line x1="886.2" x2="886.2" y1="146.0" y2="164.2" stroke="#26a69a" stroke-width="1"/><rect x="882.6" y="146.0" width="7.1" height="10.2" fill="#26a69a"/><line x1="896.5" x2="896.5" y1="134.4" y2="154.4" stroke="#ef5350" stroke-width="1"/><rect x="893.0" y="146.0" width="7.1" height="8.3" fill="#ef5350"/><line x1="906.9" x2="906.9" y1="142.8" y2="158.1" stroke="#26a69a" stroke-width="1"/><rect x="903.4" y="148.5" width="7.1" height="5.9" fill="#26a69a"/><line x1="917.3" x2="917.3" y1="137.6" y2="172.1" stroke="#ef5350" stroke-width="1"/><rect x="913.7" y="148.5" width="7.1" height="19.6" fill="#ef5350"/><line x1="927.7" x2="927.7" y1="161.8" y2="179.7" stroke="#ef5350" stroke-width="1"/><rect x="924.1" y="168.1" width="7.1" height="6.9" fill="#ef5350"/><line x1="938.1" x2="938.1" y1="174.4" y2="189.8" stroke="#ef5350" stroke-width="1"/><rect x="934.5" y="175.0" width="7.1" height="1.9" fill="#ef5350"/><line x1="948.5" x2="948.5" y1="153.3" y2="176.9" stroke="#26a69a" stroke-width="1"/><rect x="944.9" y="161.0" width="7.1" height="15.9" fill="#26a69a"/><line x1="958.8" x2="958.8" y1="129.8" y2="161.0" stroke="#26a69a" stroke-width="1"/><rect x="955.3" y="138.3" width="7.1" height="22.7" fill="#26a69a"/><line x1="969.2" x2="969.2" y1="120.5" y2="138.3" stroke="#26a69a" stroke-width="1"/><rect x="965.7" y="127.1" width="7.1" height="11.2" fill="#26a69a"/><line x1="979.6" x2="979.6" y1="121.2" y2="134.0" stroke="#ef5350" stroke-width="1"/><rect x="976.0" y="127.1" width="7.1" height="5.0" fill="#ef5350"/><line x1="990.0" x2="990.0" y1="111.7" y2="140.9" stroke="#26a69a" stroke-width="1"/><rect x="986.4" y="119.5" width="7.1" height="12.6" fill="#26a69a"/><line x1="1000.4" x2="1000.4" y1="119.5" y2="145.9" stroke="#ef5350" stroke-width="1"/><rect x="996.8" y="119.5" width="7.1" height="22.7" fill="#ef5350"/><line x1="1010.8" x2="1010.8" y1="142.1" y2="166.7" stroke="#ef5350" stroke-width="1"/><rect x="1007.2" y="142.1" width="7.1" height="15.8" fill="#ef5350"/><line x1="1021.2" x2="1021.2" y1="151.1" y2="165.3" stroke="#26a69a" stroke-width="1"/><rect x="1017.6" y="156.5" width="7.1" height="1.4" fill="#26a69a"/><line x1="1031.5" x2="1031.5" y1="152.9" y2="171.4" stroke="#ef5350" stroke-width="1"/><rect x="1028.0" y="156.5" width="7.1" height="0.9" fill="#ef5350"/><line x1="1041.9" x2="1041.9" y1="144.9" y2="161.4" stroke="#26a69a" stroke-width="1"/><rect x="1038.4" y="148.0" width="7.1" height="9.4" fill="#26a69a"/><line x1="1052.3" x2="1052.3" y1="148.0" y2="156.5" stroke="#ef5350" stroke-width="1"/><rect x="1048.7" y="148.0" width="7.1" height="7.5" fill="#ef5350"/><line x1="1062.7" x2="1062.7" y1="153.4" y2="169.4" stroke="#ef5350" stroke-width="1"/><rect x="1059.1" y="155.5" width="7.1" height="5.8" fill="#ef5350"/><line x1="1073.1" x2="1073.1" y1="159.4" y2="170.5" stroke="#ef5350" stroke-width="1"/><rect x="1069.5" y="161.2" width="7.1" height="7.3" fill="#ef5350"/><line x1="1083.5" x2="1083.5" y1="156.7" y2="168.5" stroke="#26a69a" stroke-width="1"/><rect x="1079.9" y="160.8" width="7.1" height="7.7" fill="#26a69a"/><line x1="1093.8" x2="1093.8" y1="153.9" y2="166.8" stroke="#ef5350" stroke-width="1"/><rect x="1090.3" y="160.8" width="7.1" height="1.4" fill="#ef5350"/><line x1="1104.2" x2="1104.2" y1="128.1" y2="162.3" stroke="#26a69a" stroke-width="1"/><rect x="1100.7" y="128.1" width="7.1" height="34.2" fill="#26a69a"/><line x1="1114.6" x2="1114.6" y1="111.3" y2="133.0" stroke="#26a69a" stroke-width="1"/><rect x="1111.0" y="111.3" width="7.1" height="16.8" fill="#26a69a"/><line x1="1125.0" x2="1125.0" y1="111.3" y2="229.1" stroke="#ef5350" stroke-width="1"/><rect x="1121.4" y="111.3" width="7.1" height="52.3" fill="#ef5350"/><line x1="1135.4" x2="1135.4" y1="163.6" y2="285.0" stroke="#ef5350" stroke-width="1"/><rect x="1131.8" y="163.6" width="7.1" height="101.2" fill="#ef5350"/><line x1="1145.8" x2="1145.8" y1="264.8" y2="323.2" stroke="#ef5350" stroke-width="1"/><rect x="1142.2" y="264.8" width="7.1" height="54.1" fill="#ef5350"/><line x1="1156.2" x2="1156.2" y1="288.2" y2="318.9" stroke="#26a69a" stroke-width="1"/><rect x="1152.6" y="291.5" width="7.1" height="27.4" fill="#26a69a"/><line x1="1166.5" x2="1166.5" y1="288.0" y2="322.0" stroke="#ef5350" stroke-width="1"/><rect x="1163.0" y="291.5" width="7.1" height="30.5" fill="#ef5350"/><line x1="1176.9" x2="1176.9" y1="321.6" y2="349.5" stroke="#ef5350" stroke-width="1"/><rect x="1173.4" y="322.0" width="7.1" height="13.4" fill="#ef5350"/><line x1="1187.3" x2="1187.3" y1="311.5" y2="347.6" stroke="#ef5350" stroke-width="1"/><rect x="1183.7" y="335.4" width="7.1" height="12.2" fill="#ef5350"/><line x1="1197.7" x2="1197.7" y1="325.7" y2="355.5" stroke="#26a69a" stroke-width="1"/><rect x="1194.1" y="346.5" width="7.1" height="1.1" fill="#26a69a"/><line x1="1208.1" x2="1208.1" y1="346.5" y2="376.7" stroke="#ef5350" stroke-width="1"/><rect x="1204.5" y="346.5" width="7.1" height="30.0" fill="#ef5350"/><line x1="1218.5" x2="1218.5" y1="369.0" y2="390.7" stroke="#26a69a" stroke-width="1"/><rect x="1214.9" y="371.2" width="7.1" height="5.4" fill="#26a69a"/><line x1="1228.8" x2="1228.8" y1="366.1" y2="414.4" stroke="#ef5350" stroke-width="1"/><rect x="1225.3" y="371.2" width="7.1" height="40.0" fill="#ef5350"/><line x1="1239.2" x2="1239.2" y1="381.9" y2="420.0" stroke="#26a69a" stroke-width="1"/><rect x="1235.7" y="381.9" width="7.1" height="29.3" fill="#26a69a"/><line x1="1249.6" x2="1249.6" y1="367.3" y2="388.3" stroke="#26a69a" stroke-width="1"/><rect x="1246.0" y="373.1" width="7.1" height="8.8" fill="#26a69a"/><line x1="1260.0" x2="1260.0" y1="346.7" y2="389.7" stroke="#ef5350" stroke-width="1"/><rect x="1256.4" y="373.1" width="7.1" height="12.0" fill="#ef5350"/><line x1="720" x2="1260" y1="225.4" y2="225.4" stroke="#e0e0e0" stroke-dasharray="6 3" stroke-width="1"/><text x="1262" y="229.4" fill="#e0e0e0" font-size="10">entry 1.33812</text><line x1="720" x2="1260" y1="266.9" y2="266.9" stroke="#ef5350" stroke-dasharray="6 3" stroke-width="1"/><text x="1262" y="270.9" fill="#ef5350" font-size="10">SL 1.33151</text><line x1="720" x2="1260" y1="42.6" y2="42.6" stroke="#26a69a" stroke-dasharray="6 3" stroke-width="1"/><text x="1262" y="46.6" fill="#26a69a" font-size="10">TP 1.36723</text><line x1="720" x2="1260" y1="40.0" y2="40.0" stroke="#b388ff" stroke-dasharray="6 3" stroke-width="1"/><text x="1262" y="44.0" fill="#b388ff" font-size="10">HH/LL 1.36765</text><line x1="720" x2="1260" y1="153.4" y2="153.4" stroke="#9e9e9e" stroke-dasharray="2 3" stroke-width="1"/><text x="1262" y="157.4" fill="#9e9e9e" font-size="10">50% 1.349585</text><circle cx="1128.5" cy="225.4" r="4" fill="none" stroke="#e0e0e0" stroke-width="2"><title>fill</title></circle><circle cx="1143.7" cy="269.6" r="4" fill="none" stroke="#e0e0e0" stroke-width="2"><title>exit</title></circle></svg>